# xmcd CD database file
# Copyright (C) 1993-1996 Ti Kan
#
# Track frame offsets:
#  150
#  17329
#  32485
#  47083
#  58771
#  72526
#  86311
#  102881
#  117935
#  129848
#  145448
#  161232
#  178179
#  190759
#  204985
#  216013
#  235424
#  248757
#  261781
#  276169
#  291037
#
# Disc length: 4040 seconds
#
# Revision: 1
# Processed by: cddbd v1.5.1PL2 Copyright (c) Steve Scherf et al.
# Submitted via: Advanced CD Ripper Pro 2.0
#
DISCID=300fc615
DTITLE=Varios - Lo mas nuevo grupero CD 2
DYEAR=2006
DGENRE=Grupero
TTITLE0=Track01
TTITLE1=Lagrimillas tontas
TTITLE2=Pero te vas a arrepentir
TTITLE3=Jardin olvidado
TTITLE4=Tamarindo
TTITLE5=Camaleon
TTITLE6=Solo tu
TTITLE7=Descontrolado
TTITLE8=Tocando fondo
TTITLE9=A chillar a otra parte
TTITLE10=Directo al corazon
TTITLE11=Inventario
TTITLE12=Fruta prohibida
TTITLE13=Llevame contigo
TTITLE14=La manzanita
TTITLE15=Que vuelva
TTITLE16=Regresando
TTITLE17=Ya me habían dicho
TTITLE18=Aveces
TTITLE19=Eres divina
TTITLE20=Disculpe usted
EXTD=
EXTT0=
EXTT1=
EXTT2=
EXTT3=
EXTT4=
EXTT5=
EXTT6=
EXTT7=
EXTT8=
EXTT9=
EXTT10=
EXTT11=
EXTT12=
EXTT13=
EXTT14=
EXTT15=
EXTT16=
EXTT17=
EXTT18=
EXTT19=
EXTT20=
PLAYORDER=
